<?xml version="1.0" standalone="no"?><!DOCTYPE svg PUBLIC "-//W3C//DTD SVG 1.1//EN" "http://www.w3.org/Graphics/SVG/1.1/DTD/svg11.dtd"><svg t="1694090854987" class="icon" viewBox="0 0 1024 1024" version="1.1" xmlns="http://www.w3.org/2000/svg" p-id="5194" xmlns:xlink="http://www.w3.org/1999/xlink" width="200" height="200"><path d="M462.4 213.6c-57.6 0-104.8-47.2-104.8-104.8S404.8 4 462.4 4 568 51.2 568 108.8s-47.2 104.8-105.6 104.8z m0-177.6c-40 0-72.8 32.8-72.8 72.8s32.8 72.8 72.8 72.8 72.8-32.8 72.8-72.8-32-72.8-72.8-72.8zM193.6 608.8c-31.2 0-56.8-25.6-56.8-56.8V444c0-20 9.6-37.6 26.4-48L373.6 264c4-2.4 8.8-4.8 14.4-6.4 7.2-2.4 15.2 1.6 18.4 8 3.2 7.2 1.6 15.2-4.8 20-23.2 17.6-36 44.8-36 73.6v34.4c0 5.6-3.2 10.4-7.2 13.6l-108.8 68V552c0.8 32-24.8 56.8-56 56.8z m146.4-285.6l-160 100c-7.2 4.8-12 12.8-12 20.8V552c0 13.6 11.2 24.8 24.8 24.8s24.8-11.2 24.8-24.8V466.4c0-5.6 3.2-10.4 7.2-13.6l108.8-68v-25.6c0.8-12 3.2-24.8 6.4-36z" fill="#303C42" p-id="5195"></path><path d="M727.2 1020c-29.6 0-55.2-20-62.4-48l-52-191.2-136-126.4h-18.4l-27.2 159.2c-4 25.6-24 46.4-49.6 52.8l-216.8 49.6c-4.8 0.8-9.6 1.6-14.4 1.6-32 0-59.2-23.2-64-55.2-4.8-33.6 17.6-65.6 52-73.6l172-39.2 24.8-145.6V362.4c0-70.4 57.6-128 128-128s128 57.6 128 128V584l123.2 115.2c8.8 8 15.2 19.2 18.4 30.4l56 207.2c8.8 32-6.4 65.6-35.2 78.4-8.8 3.2-17.6 4.8-26.4 4.8zM496 628.8L637.6 760c2.4 2.4 4 4.8 4.8 7.2l52.8 196c4 14.4 16.8 24 32 24 4.8 0 9.6-0.8 13.6-3.2 14.4-6.4 22.4-24 17.6-40.8l-56-207.2c-1.6-5.6-4.8-11.2-9.6-15.2l-128.8-120c-3.2-3.2-4.8-7.2-4.8-12V361.6c0-52.8-43.2-96-96-96s-96 43.2-96 96v245.6l-26.4 157.6c-0.8 6.4-5.6 11.2-12 12.8l-182.4 41.6c-17.6 4-29.6 20.8-27.2 37.6 2.4 16 16 28 32.8 28 2.4 0 4.8 0 7.2-0.8l216.8-49.6c12.8-3.2 23.2-13.6 24.8-26.4l29.6-172.8c1.6-8 8-13.6 16-13.6h38.4c4 0 8 1.6 11.2 4.8-0.8 0.8-0.8 1.6 0 2.4z" fill="#303C42" p-id="5196"></path><path d="M680.8 394.4c-34.4 0-71.2-2.4-108-7.2-8-0.8-14.4-8-14.4-16v-12c0-24-8.8-46.4-24.8-64-4.8-4.8-5.6-12.8-2.4-18.4 3.2-6.4 10.4-9.6 16.8-8 46.4 8 91.2 12 133.6 12 60 0 112-8 155.2-24 6.4-2.4 12.8-3.2 19.2-3.2 24 0 44.8 15.2 53.6 37.6 5.6 14.4 4.8 29.6-1.6 43.2-6.4 13.6-17.6 24-32 29.6-56 20-121.6 30.4-195.2 30.4z m-89.6-36.8c31.2 3.2 60.8 4.8 89.6 4.8 69.6 0 132-9.6 184-28.8 6.4-2.4 11.2-7.2 13.6-12.8s3.2-12.8 0.8-19.2c-4.8-12.8-19.2-19.2-32-14.4-46.4 16.8-102.4 25.6-165.6 25.6-32.8 0-67.2-2.4-103.2-7.2 8 16.8 12 34.4 12.8 52zM840 664c-54.4 0-98.4-44-98.4-98.4s44-98.4 98.4-98.4 98.4 44 98.4 98.4S894.4 664 840 664z m0-164.8c-36.8 0-66.4 29.6-66.4 66.4s29.6 66.4 66.4 66.4c36.8 0 66.4-29.6 66.4-66.4s-29.6-66.4-66.4-66.4z" fill="#303C42" p-id="5197"></path></svg>