<?xml version="1.0" standalone="no"?><!DOCTYPE svg PUBLIC "-//W3C//DTD SVG 1.1//EN" "http://www.w3.org/Graphics/SVG/1.1/DTD/svg11.dtd"><svg t="1694090912801" class="icon" viewBox="0 0 1024 1024" version="1.1" xmlns="http://www.w3.org/2000/svg" p-id="8240" xmlns:xlink="http://www.w3.org/1999/xlink" width="200" height="200"><path d="M596.992 613.888c0-2.048 0-4.096-0.512-6.144 0.512-20.48-12.8-39.424-32.768-45.056-7.168-3.072-15.36-5.12-23.552-5.12h-112.64l8.704-155.136h161.792c20.48 0 37.376-16.384 37.376-37.376 0-20.48-16.896-37.376-37.376-37.376H440.32l1.024-18.432c2.56-41.984-29.696-77.824-71.68-80.384s-77.824 29.696-80.384 71.68l-15.872 284.672c-1.024 22.528 7.68 43.008 22.016 57.856 10.24 15.872 27.648 26.624 48.128 26.624h145.92L445.44 880.128c-5.12 25.088 10.752 49.152 35.328 54.784s49.152-10.752 54.784-35.328L590.848 640c4.096-7.68 6.144-16.896 6.144-26.112z" fill="#040000" p-id="8241"></path><path d="M409.6 683.008h-171.52l-10.24-74.752c13.824-6.656 22.016-21.504 19.968-37.376l-28.672-209.92c-2.56-19.968-20.992-33.792-40.96-31.232-19.968 2.56-33.792 20.992-31.232 40.96l28.672 209.92c1.536 13.312 10.24 23.552 21.504 28.16l10.24 74.24c-11.776 2.048-20.48 11.776-20.48 24.064 0 13.312 10.752 24.064 24.064 24.064h54.272v83.456h83.968V731.648H409.6c13.312 0 24.576-10.752 24.576-24.064s-11.264-24.576-24.576-24.576zM349.696 899.072h-18.432V818.176h-43.008v81.408h-20.992c-37.888 0-68.608 22.016-68.608 49.152h219.136c0.512-27.648-30.208-49.664-68.096-49.664zM482.816 470.528h152.576v428.032h-38.4v44.544h138.752v-44.544h-40.96V470.528h132.096v-52.224h-344.064zM911.36 170.496c-7.168-2.56-15.872 3.072-19.456 13.312l-73.728 196.608h-170.496c-7.68 0-14.336 6.144-14.336 14.336 0 7.68 6.144 14.336 14.336 14.336h175.616c7.168 2.048 15.36-3.584 18.944-13.312l75.776-201.728c3.072-10.24 0.512-20.48-6.656-23.552zM396.288 210.944c47.616 0 86.016-36.352 86.016-81.408s-38.4-81.408-86.016-81.408-86.016 36.352-86.016 81.408 38.4 81.408 86.016 81.408z" fill="#040000" p-id="8242"></path></svg>