<?xml version="1.0" standalone="no"?><!DOCTYPE svg PUBLIC "-//W3C//DTD SVG 1.1//EN" "http://www.w3.org/Graphics/SVG/1.1/DTD/svg11.dtd"><svg t="1694090965538" class="icon" viewBox="0 0 1024 1024" version="1.1" xmlns="http://www.w3.org/2000/svg" p-id="9453" xmlns:xlink="http://www.w3.org/1999/xlink" width="200" height="200"><path d="M499.2 174L356.8 351l166.8 118.4 131.3-116.3z" fill="#D1D2D4" p-id="9454"></path><path d="M935.8 514.4c-15.8-4.7-45-12.3-81.2-17.5 3-69.2-10.2-131.2-19-163.1-5.7-20.9-26.2-33.9-47.6-30.3-21.9 3.8-67.7 13.5-118.2 34.1-33.3-90.3-101.6-159.7-130.5-186.1-2-1.8-4.1-3.4-6.4-4.8-11.2-6.9-24.8-8.1-36.8-3.5-4.8 1.8-9.4 4.6-13.4 8.2-28 25.2-95.1 91.8-130.9 178.9-42.7-15.6-80-23.4-99-26.7-21.5-3.7-42.1 9.3-47.8 30.3-8.6 31.5-21.7 92.5-19.1 160.9-43.9 5-79.7 14.3-97.8 19.7-20.9 6.2-33.5 27-29.3 48.4C68 610 107.3 769.3 227.7 841.4c53.9 32.3 115.4 42.2 171 42.2 29 0 56.4-2.7 80.2-6.4a513 513 0 0 0 32.8-6.1c30.4 6.6 70.2 12.6 113.5 12.6 55.8 0 117.2-10.1 171.1-42.4C916.7 769.2 956 609.9 965.2 562.8c4.1-21.5-8.5-42.2-29.4-48.4zM788.6 355.2c6.8 26.7 17.3 79.3 15.3 136.6-61.9-3.1-133.8 4.6-195.2 41.4-9.7 5.8-18.7 12.2-27.4 18.9-0.3 0.3-0.6 0.5-1 0.8-30.1 23.9-54.2 53.1-73.3 83.5 1.2-47.5 10.9-99.4 39.1-143.3 60.9-94.9 192.3-128.3 242.5-137.9zM510.9 194.7c29.1 27.6 85.7 88.7 112.4 164.8-37.4 20.2-74.1 46.9-103 82.4-33.6-41.3-77.8-70.8-121.3-91.8 29.5-71.9 83.9-129.3 111.9-155.4zM252.2 355.2c49.1 9.4 176 41.8 238.5 132.2-13.6 26.5-22.5 54.5-27.8 82.4-14.9-14.2-30.7-26.5-47.5-36.6-56-33.5-120.6-42.8-178.5-41.9-2-57.2 8.5-109.5 15.3-136.1z m1.7 442.2C157.5 739.6 121.2 610.5 110.6 561c49.3-13.7 181.9-41.9 278.6 16 24.4 14.7 46.8 35.1 66.6 60.7l0.2-0.2c-0.6 27.2 1.3 52.9 4.2 75.4 0.7 5.7 1.5 11.1 2.4 16.5-18.9 52.7-24.9 94.5-25.5 98.3l-0.4 3.1c-56.8 4.8-126 0.6-182.8-33.4z m516.2 0c-6 3.6-12.2 6.9-18.4 9.8-93.9 44.4-212.9 19.1-260.1 6.1 0.4-1.7 0.9-3.8 1.3-5.7 0.4-1.8 0.8-3.6 1.3-5.6 0.5-2.1 1.1-4.3 1.6-6.6 0.7-2.7 1.4-5.5 2.2-8.4 0.6-2.3 1.2-4.5 1.9-6.9 1.2-4.1 2.5-8.5 3.9-13 0.4-1.4 0.8-2.8 1.3-4.2 1.9-5.8 4-11.9 6.2-18.1 0.7-1.8 1.4-3.7 2.1-5.6 1.8-4.7 3.7-9.6 5.7-14.5 0.7-1.6 1.3-3.2 2-4.9 5.9-13.9 12.9-28.4 21.1-42.9 0.1-0.1 0.1-0.2 0.2-0.3 4.1-7.1 8.4-14.2 13.1-21.2 0.5-0.7 0.9-1.4 1.4-2 9.6-14.2 20.6-28 32.9-40.6 1-1 2-1.9 3-2.9 5-5 10.3-9.7 15.8-14.2 1.7-1.4 3.3-2.7 5-4.1 6.8-5.3 13.7-10.3 21.2-14.7 96.7-57.9 229.2-29.7 278.6-16-10.6 49.7-46.9 178.7-143.3 236.5z" fill="" p-id="9455"></path></svg>