<svg width="323" height="72" viewBox="0 0 323 72" fill="none" xmlns="http://www.w3.org/2000/svg">
<path d="M71.872 24.104H80.8V53H86.272V24.104H95.152V19.64H71.872V24.104ZM106.166 39.08C106.166 33.464 108.662 31.784 112.694 31.784H114.086V26.12C110.342 26.12 107.702 27.752 106.166 30.392V26.552H100.694V53H106.166V39.08ZM117.292 39.656C117.292 47.816 122.812 53.432 129.676 53.432C134.092 53.432 137.26 51.32 138.94 49.064V53H144.46V26.552H138.94V30.392C137.308 28.232 134.236 26.12 129.772 26.12C122.812 26.12 117.292 31.496 117.292 39.656ZM138.94 39.752C138.94 45.464 135.052 48.68 130.924 48.68C126.844 48.68 122.908 45.368 122.908 39.656C122.908 33.944 126.844 30.872 130.924 30.872C135.052 30.872 138.94 34.088 138.94 39.752ZM148.527 26.552L158.559 53H165.087L175.167 26.552H169.359L161.871 48.104L154.383 26.552H148.527ZM190.439 30.728C194.519 30.728 197.735 33.32 197.831 37.4H183.191C183.767 33.224 186.743 30.728 190.439 30.728ZM202.823 45.128H196.919C195.911 47.192 194.039 48.824 190.679 48.824C186.647 48.824 183.527 46.184 183.143 41.816H203.351C203.495 40.904 203.543 40.04 203.543 39.128C203.543 31.352 198.215 26.12 190.679 26.12C182.855 26.12 177.479 31.448 177.479 39.752C177.479 48.056 183.095 53.432 190.679 53.432C197.159 53.432 201.335 49.736 202.823 45.128ZM208.928 19.64V53H225.68V48.584H214.4V19.64H208.928ZM228.432 39.656C228.432 47.816 233.952 53.432 240.816 53.432C245.232 53.432 248.4 51.32 250.08 49.064V53H255.6V26.552H250.08V30.392C248.448 28.232 245.376 26.12 240.912 26.12C233.952 26.12 228.432 31.496 228.432 39.656ZM250.08 39.752C250.08 45.464 246.192 48.68 242.064 48.68C237.984 48.68 234.048 45.368 234.048 39.656C234.048 33.944 237.984 30.872 242.064 30.872C246.192 30.872 250.08 34.088 250.08 39.752ZM281.556 53H286.98V37.4C286.98 30.008 282.324 26.12 276.132 26.12C272.964 26.12 270.036 27.416 268.26 29.576V26.552H262.788V53H268.26V38.216C268.26 33.368 270.9 30.872 274.932 30.872C278.916 30.872 281.556 33.368 281.556 38.216V53ZM292.135 39.656C292.135 47.816 297.655 53.432 304.615 53.432C308.935 53.432 312.103 51.416 313.783 49.016V53H319.303V17.48H313.783V30.248C311.767 27.752 308.119 26.12 304.663 26.12C297.655 26.12 292.135 31.496 292.135 39.656ZM313.783 39.752C313.783 45.464 309.895 48.68 305.767 48.68C301.687 48.68 297.751 45.368 297.751 39.656C297.751 33.944 301.687 30.872 305.767 30.872C309.895 30.872 313.783 34.088 313.783 39.752Z" fill="#222222"/>
<path d="M64 48.2C64 42.3 59.2 37.5 53.3 37.5C47.4 37.5 42.6 42.3 42.6 48.2C42.6 51.7 45.8 57 48.2 61H17.9C16.6 61 15.2 60.5 14.2 59.4C12.9 58.1 12.3 56.2 12.9 54.3C13.4 52.2 15.8 50.3 18.5 50.3H28.9C31.8 50.3 34.5 49.2 36.4 47.1C39.3 44.2 40.4 39.9 38.8 35.9C37.5 31.9 33.2 29 28.7 29H15.2C17.9 25 21.3 19.1 21.3 15.7C21.3 9.8 16.5 5 10.6 5C4.7 5 0 9.8 0 15.7C0 20.5 6.1 29.6 8 32.2C8.3 33.3 9.3 34.3 10.7 34.3H28.6C31 34.3 33.1 35.6 33.7 37.8C34.5 39.9 34 42.1 32.4 43.4C31.3 44.5 30 45 28.7 45H18.1C12.8 45 8.2 48.5 7.4 53.5C6.6 57 7.7 60.7 10.3 63.4C12.4 65.5 15.1 66.6 17.8 66.6H53.3C54.4 66.6 55.4 65.8 55.7 65C57.9 62.1 64 52.7 64 48.2ZM10.7 10.3C13.6 10.3 16 12.7 16 15.6C16 17.5 13.6 22 10.7 26.3C7.8 22 5.4 17.2 5.4 15.6C5.3 12.7 7.7 10.3 10.7 10.3ZM53.3 42.9C56.2 42.9 58.6 45.3 58.6 48.2C58.6 50.1 56.2 54.6 53.3 58.9C50.4 54.6 48 49.8 48 48.2C48 45.3 50.4 42.9 53.3 42.9Z" fill="#EEC41E"/>
<path d="M53.3 50.1C54.7911 50.1 56 48.8912 56 47.4C56 45.9088 54.7911 44.7 53.3 44.7C51.8088 44.7 50.6 45.9088 50.6 47.4C50.6 48.8912 51.8088 50.1 53.3 50.1Z" fill="#EEC41E"/>
<path d="M10.7 17.6C12.1912 17.6 13.4 16.3912 13.4 14.9C13.4 13.4088 12.1912 12.2 10.7 12.2C9.20883 12.2 8 13.4088 8 14.9C8 16.3912 9.20883 17.6 10.7 17.6Z" fill="#EEC41E"/>
</svg>
