<svg t="1729075740208" class="icon" viewBox="0 0 1024 1024" version="1.1" xmlns="http://www.w3.org/2000/svg" p-id="2306" width="32" height="32"><path d="M860 965.3H678.8c-26.1 0-47.3-21-47.6-47l-1.8-141.7c-0.3-26.2-21.8-47.2-48-47l-161.2 1.2c-26.2 0.2-47.4 21.6-47.3 47.8l0.6 138.9c0.1 26.4-21.2 47.8-47.6 47.8H161.4c-26.3 0-47.6-21.3-47.6-47.6V308.6c0-17.3 9.3-33.2 24.4-41.6L481.9 75.1c14.2-8 31.6-8.1 45.9-0.3l354.9 192.3c15.4 8.3 24.9 24.4 24.9 41.9v608.7c0.1 26.3-21.3 47.6-47.6 47.6z" p-id="2307" fill="#ffffff" data-spm-anchor-id="a313x.search_index.0.i5.2c6a3a81eNWFDe" class="selected"></path></svg>