<svg t="1701274345797" class="icon" viewBox="0 0 1024 1024" version="1.1" xmlns="http://www.w3.org/2000/svg" p-id="18133" width="32" height="32"><path d="M953.9 220.6c-3.8 4.4-8.3 8.5-13.3 12.1L593.2 478.6c0.2 2.1 0.3 4.3 0.3 6.4 0 44.2-35.8 80-80 80s-80-35.8-80-80c0-1.5 0.1-3 0.1-4.5L83.4 232.7c-5.1-3.6-9.5-7.7-13.3-12.1-3.3 8.4-5.1 17.6-5.1 27.1v528.5c0 41.7 34.1 75.7 75.7 75.7h742.5c41.7 0 75.7-34.1 75.7-75.7V247.7c0.1-9.5-1.7-18.6-5-27.1z" p-id="18134" fill="#707070"></path><path d="M918.7 180.9c-10.6-5.7-22.6-8.9-35.4-8.9H140.7c-12.8 0-24.8 3.2-35.4 8.9-0.1 0.4-0.1 0.8-0.1 1.1 0 3 2.7 6.7 7.1 9.9l340.5 241c14.7-17 36.4-27.9 60.6-27.9 23.6 0 44.9 10.3 59.5 26.6l338.7-239.7c4.4-3.1 7.1-6.8 7.1-9.9 0.1-0.4 0.1-0.7 0-1.1z" p-id="18135" fill="#707070"></path></svg>