<svg t="1701274275270" class="icon" viewBox="0 0 1228 1024" version="1.1" xmlns="http://www.w3.org/2000/svg" p-id="17070" width="32" height="32"><path d="M1228.786074 134.005948c-19.899508 41.949391-54.271385 71.781586-88.813927 99.9754-21.298959 17.305404-26.521299 35.225201-27.886617 61.371038-15.701155 299.10701-146.293809 529.913994-421.098161 658.151474-228.485944 106.631325-459.08813 89.837915-680.269624-33.894016-4.437283-2.457572-10.410549-3.891156-10.717745-14.165172 89.769649 6.348728 176.876929-5.119942 259.103197-42.870981 33.791617-15.462225 67.105373-32.08497 100.692192-61.16624-16.827543-3.345029-28.910606-5.461271-40.823004-8.191907-83.693985-19.11445-143.665572-67.924564-181.007015-145.201555-8.942832-18.500057-8.635635-28.159681 16.554479-26.009305 23.415201 2.047977 47.171732 0.443728 72.29358-3.310896-115.505891-46.079478-183.157391-124.824185-188.959991-254.631781 36.351588 10.751878 66.968841 27.067427 107.655313 26.214103-52.530605-44.645894-88.199534-94.548262-100.453262-158.684068-11.980664-62.633957-4.539682-121.786353 29.798063-180.733952C122.67381 104.344417 171.142594 151.891612 227.666753 190.461841c103.832423 70.996529 218.484991 111.546469 343.036112 125.677509 21.298959 2.389306 31.777773 1.023988 28.808207-26.316501-11.673468-107.723579 29.627398-193.090078 121.206093-248.82918 92.944013-56.558292 191.212766-55.60257 278.593109 9.215895 41.403264 30.719652 74.614621 32.08497 116.120284 13.311849 26.965028-12.185462 54.237252-23.619999 89.18939-38.775027-21.367225 58.128408-53.008466 99.804736-104.446817 134.756873 48.093322 0.273064 85.946759-20.03604 126.394301-27.784218l2.218642 2.286907z" fill="#707070" p-id="17071"></path></svg>